{"title":"Punisher-War Zone - AVM","uid":5045235,"size":315188346,"categoryP":"video","categoryS":"handheld","magnet":"?xt=urn:btih:09de6b82c164d35180cc77ca7f543e260c6e392f&amp;dn=Punisher-War+Zone+-+AVM&amp;tr=udp%3A%2F%2Ftracker.openbittorrent.com%3A80&amp;tr=udp%3A%2F%2Fopen.demonii.com%3A1337&amp;tr=udp%3A%2F%2Ftracker.coppersurfer.tk%3A6969&amp;tr=udp%3A%2F%2Fexodus.desync.com%3A6969","seeders":1,"leechers":0,"uploader":"AVIDM","files":1,"time":1249593185,"description":"AVIDMobile - http://www.avidmobile.com.ar (Mobile media)\n\nVideo\nID                               : 1\nFormat                           : MPEG-4 Visual\nFormat profile                   : Advanced Simple@L5\nFormat settings, BVOP            : Yes\nFormat settings, QPel            : No\nFormat settings, GMC             : No warppoints\nFormat settings, Matrix          : Default (H.263)\nCodec ID                         : 20\nDuration                         : 1h 42mn\nBit rate mode                    : Variable\nBit rate                         : 342 Kbps\nMaximum bit rate                 : 1 448 Kbps\nWidth                            : 320 pixels\nHeight                           : 240 pixels\nDisplay aspect ratio             : 4/3\nFrame rate mode                  : Variable\nFrame rate                       : 23.976 fps\nMinimum frame rate               : 23.974 fps\nMaximum frame rate               : 23.981 fps\nResolution                       : 24 bits\nColorimetry                      : 4:2:0\nScan type                        : Progressive\nBits/(Pixel*Frame)               : 0.186\nStream size                      : 252 MiB (84%)\nAudio\nID                               : 2\nFormat                           : AAC\nFormat/Info                      : Advanced Audio Codec\nFormat version                   : Version 4\nFormat profile                   : LC\nFormat settings, SBR             : No\nCodec ID                         : 40\nDuration                         : 1h 42mn\nBit rate mode                    : Variable\nBit rate                         : 63.1 Kbps\nMaximum bit rate                 : 137 Kbps\nChannel(s)                       : 2 channels\nChannel positions                : L R\nSampling rate                    : 22.05 KHz\nResolution                       : 16 bits\nStream size                      : 46.4 MiB (15%)","torrent":{"xt":"urn:btih:09de6b82c164d35180cc77ca7f543e260c6e392f","amp;dn":"Punisher-War+Zone+-+AVM","amp;tr":["udp%3A%2F%2Ftracker.openbittorrent.com%3A80","udp%3A%2F%2Fopen.demonii.com%3A1337","udp%3A%2F%2Ftracker.coppersurfer.tk%3A6969","udp%3A%2F%2Fexodus.desync.com%3A6969"],"infoHash":"09de6b82c164d35180cc77ca7f543e260c6e392f","infoHashBuffer":{"type":"Buffer","data":[9,222,107,130,193,100,211,81,128,204,119,202,127,84,62,38,12,110,57,47]},"announce":[],"urlList":[]}}